<mxfile host="Electron" modified="2023-06-25T09:59:13.906Z" agent="Mozilla/5.0 (Windows NT 10.0; Win64; x64) AppleWebKit/537.36 (KHTML, like Gecko) draw.io/21.5.0 Chrome/112.0.5615.204 Electron/24.5.1 Safari/537.36" etag="e2eiU7ULuvd02j75RbPo" version="21.5.0" type="device">
  <diagram id="p-ZNx8cPOFBXN8jr9XQ7" name="Pagina-1">
    <mxGraphModel dx="2058" dy="820" grid="1" gridSize="10" guides="1" tooltips="1" connect="1" arrows="1" fold="1" page="1" pageScale="1" pageWidth="827" pageHeight="1169" math="0" shadow="0">
      <root>
        <mxCell id="0" />
        <mxCell id="1" parent="0" />
        <mxCell id="ZPkikcdjEnZt1FW7UEud-4" value="UserBasic" style="shape=umlActor;verticalLabelPosition=bottom;verticalAlign=top;html=1;outlineConnect=0;" parent="1" vertex="1">
          <mxGeometry x="40" y="380" width="30" height="60" as="geometry" />
        </mxCell>
        <mxCell id="ZPkikcdjEnZt1FW7UEud-1" value="Chef" style="shape=umlActor;verticalLabelPosition=bottom;verticalAlign=top;html=1;outlineConnect=0;" parent="1" vertex="1">
          <mxGeometry x="43.13" y="770" width="30" height="60" as="geometry" />
        </mxCell>
        <mxCell id="ZPkikcdjEnZt1FW7UEud-56" value="GOOGLE API" style="shape=umlActor;verticalLabelPosition=bottom;verticalAlign=top;html=1;outlineConnect=0;" parent="1" vertex="1">
          <mxGeometry x="760" y="620" width="30" height="60" as="geometry" />
        </mxCell>
        <mxCell id="TK7ho7hmgDEkicRMMMnY-5" value="" style="swimlane;startSize=0;" parent="1" vertex="1">
          <mxGeometry x="90" y="20" width="600" height="870" as="geometry" />
        </mxCell>
        <mxCell id="XZ38GkeC8Dj74kSuUXk6-2" value="" style="endArrow=classic;html=1;rounded=0;entryX=0;entryY=0.5;entryDx=0;entryDy=0;" parent="TK7ho7hmgDEkicRMMMnY-5" target="iisatfZGkJTnnGYzdXa2-1" edge="1">
          <mxGeometry width="50" height="50" relative="1" as="geometry">
            <mxPoint x="-10" y="380" as="sourcePoint" />
            <mxPoint x="-20" y="220" as="targetPoint" />
            <Array as="points" />
          </mxGeometry>
        </mxCell>
        <mxCell id="XZ38GkeC8Dj74kSuUXk6-3" value="" style="ellipse;whiteSpace=wrap;html=1;" parent="TK7ho7hmgDEkicRMMMnY-5" vertex="1">
          <mxGeometry x="273" y="30" width="90" height="50" as="geometry" />
        </mxCell>
        <mxCell id="XZ38GkeC8Dj74kSuUXk6-5" value="delete product" style="text;html=1;strokeColor=none;fillColor=none;align=center;verticalAlign=middle;whiteSpace=wrap;rounded=0;" parent="TK7ho7hmgDEkicRMMMnY-5" vertex="1">
          <mxGeometry x="288" y="40" width="65" height="30" as="geometry" />
        </mxCell>
        <mxCell id="iisatfZGkJTnnGYzdXa2-1" value="" style="ellipse;whiteSpace=wrap;html=1;" parent="TK7ho7hmgDEkicRMMMnY-5" vertex="1">
          <mxGeometry x="108" y="140" width="90" height="50" as="geometry" />
        </mxCell>
        <mxCell id="iisatfZGkJTnnGYzdXa2-2" value="" style="endArrow=classic;html=1;rounded=0;entryX=1;entryY=0;entryDx=0;entryDy=0;exitX=0;exitY=0.5;exitDx=0;exitDy=0;" parent="TK7ho7hmgDEkicRMMMnY-5" source="XZ38GkeC8Dj74kSuUXk6-3" target="iisatfZGkJTnnGYzdXa2-1" edge="1">
          <mxGeometry relative="1" as="geometry">
            <mxPoint x="315.65" y="70" as="sourcePoint" />
            <mxPoint x="198" y="159" as="targetPoint" />
          </mxGeometry>
        </mxCell>
        <mxCell id="iisatfZGkJTnnGYzdXa2-3" value="Extends" style="edgeLabel;resizable=0;html=1;align=center;verticalAlign=middle;" parent="iisatfZGkJTnnGYzdXa2-2" connectable="0" vertex="1">
          <mxGeometry relative="1" as="geometry" />
        </mxCell>
        <mxCell id="iisatfZGkJTnnGYzdXa2-4" value="view list&amp;nbsp;&lt;br&gt;of products" style="edgeLabel;resizable=0;html=1;align=center;verticalAlign=middle;" parent="TK7ho7hmgDEkicRMMMnY-5" connectable="0" vertex="1">
          <mxGeometry relative="1" as="geometry">
            <mxPoint x="153" y="165" as="offset" />
          </mxGeometry>
        </mxCell>
        <mxCell id="ZPkikcdjEnZt1FW7UEud-9" value="" style="ellipse;whiteSpace=wrap;html=1;" parent="TK7ho7hmgDEkicRMMMnY-5" vertex="1">
          <mxGeometry x="273" y="140" width="90" height="50" as="geometry" />
        </mxCell>
        <mxCell id="ZPkikcdjEnZt1FW7UEud-12" value="search product" style="text;html=1;strokeColor=none;fillColor=none;align=center;verticalAlign=middle;whiteSpace=wrap;rounded=0;" parent="TK7ho7hmgDEkicRMMMnY-5" vertex="1">
          <mxGeometry x="288" y="150" width="60" height="30" as="geometry" />
        </mxCell>
        <mxCell id="ZPkikcdjEnZt1FW7UEud-36" value="" style="ellipse;whiteSpace=wrap;html=1;" parent="TK7ho7hmgDEkicRMMMnY-5" vertex="1">
          <mxGeometry x="470" y="140" width="90" height="50" as="geometry" />
        </mxCell>
        <mxCell id="ZPkikcdjEnZt1FW7UEud-37" value="select filter" style="text;html=1;strokeColor=none;fillColor=none;align=center;verticalAlign=middle;whiteSpace=wrap;rounded=0;" parent="TK7ho7hmgDEkicRMMMnY-5" vertex="1">
          <mxGeometry x="485" y="150" width="60" height="30" as="geometry" />
        </mxCell>
        <mxCell id="ZPkikcdjEnZt1FW7UEud-28" value="" style="endArrow=classic;html=1;rounded=0;entryX=1;entryY=0.5;entryDx=0;entryDy=0;" parent="TK7ho7hmgDEkicRMMMnY-5" source="ZPkikcdjEnZt1FW7UEud-36" target="ZPkikcdjEnZt1FW7UEud-9" edge="1">
          <mxGeometry relative="1" as="geometry">
            <mxPoint x="458" y="80" as="sourcePoint" />
            <mxPoint x="303" y="160" as="targetPoint" />
            <Array as="points" />
          </mxGeometry>
        </mxCell>
        <mxCell id="ZPkikcdjEnZt1FW7UEud-29" value="Extends" style="edgeLabel;resizable=0;html=1;align=center;verticalAlign=middle;" parent="ZPkikcdjEnZt1FW7UEud-28" connectable="0" vertex="1">
          <mxGeometry relative="1" as="geometry" />
        </mxCell>
        <mxCell id="m8yhM-mC_Noncx3uko2s-1" value="" style="endArrow=classic;html=1;rounded=0;entryX=0.5;entryY=0;entryDx=0;entryDy=0;exitX=0;exitY=0.5;exitDx=0;exitDy=0;" parent="TK7ho7hmgDEkicRMMMnY-5" source="ZPkikcdjEnZt1FW7UEud-9" edge="1">
          <mxGeometry relative="1" as="geometry">
            <mxPoint x="303.0000000000008" y="130" as="sourcePoint" />
            <mxPoint x="198" y="165" as="targetPoint" />
          </mxGeometry>
        </mxCell>
        <mxCell id="m8yhM-mC_Noncx3uko2s-2" value="Extends" style="edgeLabel;resizable=0;html=1;align=center;verticalAlign=middle;" parent="m8yhM-mC_Noncx3uko2s-1" connectable="0" vertex="1">
          <mxGeometry relative="1" as="geometry" />
        </mxCell>
        <mxCell id="ZPkikcdjEnZt1FW7UEud-5" value="" style="ellipse;whiteSpace=wrap;html=1;" parent="TK7ho7hmgDEkicRMMMnY-5" vertex="1">
          <mxGeometry x="108" y="10" width="90" height="50" as="geometry" />
        </mxCell>
        <mxCell id="ZPkikcdjEnZt1FW7UEud-8" value="register product" style="text;html=1;strokeColor=none;fillColor=none;align=center;verticalAlign=middle;whiteSpace=wrap;rounded=0;" parent="TK7ho7hmgDEkicRMMMnY-5" vertex="1">
          <mxGeometry x="123" y="20" width="60" height="30" as="geometry" />
        </mxCell>
        <mxCell id="ZPkikcdjEnZt1FW7UEud-15" value="" style="ellipse;whiteSpace=wrap;html=1;" parent="TK7ho7hmgDEkicRMMMnY-5" vertex="1">
          <mxGeometry x="161" y="470" width="90" height="50" as="geometry" />
        </mxCell>
        <mxCell id="ZPkikcdjEnZt1FW7UEud-18" value="follow chef" style="text;html=1;strokeColor=none;fillColor=none;align=center;verticalAlign=middle;whiteSpace=wrap;rounded=0;" parent="TK7ho7hmgDEkicRMMMnY-5" vertex="1">
          <mxGeometry x="176" y="480" width="60" height="30" as="geometry" />
        </mxCell>
        <mxCell id="m8yhM-mC_Noncx3uko2s-6" value="" style="endArrow=classic;html=1;rounded=0;entryX=0.5;entryY=0;entryDx=0;entryDy=0;exitX=0.5;exitY=1;exitDx=0;exitDy=0;" parent="TK7ho7hmgDEkicRMMMnY-5" source="ZPkikcdjEnZt1FW7UEud-5" target="iisatfZGkJTnnGYzdXa2-1" edge="1">
          <mxGeometry relative="1" as="geometry">
            <mxPoint x="195" y="320" as="sourcePoint" />
            <mxPoint x="70" y="245" as="targetPoint" />
          </mxGeometry>
        </mxCell>
        <mxCell id="m8yhM-mC_Noncx3uko2s-7" value="Extends" style="edgeLabel;resizable=0;html=1;align=center;verticalAlign=middle;" parent="m8yhM-mC_Noncx3uko2s-6" connectable="0" vertex="1">
          <mxGeometry relative="1" as="geometry" />
        </mxCell>
        <mxCell id="Ki8oWJl16zvvb1Vfv7GC-3" value="&lt;font style=&quot;font-size: 10px;&quot;&gt;view recipe info and rate recipe&lt;/font&gt;" style="ellipse;whiteSpace=wrap;html=1;" parent="TK7ho7hmgDEkicRMMMnY-5" vertex="1">
          <mxGeometry x="235" y="379.99999999999994" width="75" height="50" as="geometry" />
        </mxCell>
        <mxCell id="ZPkikcdjEnZt1FW7UEud-46" value="" style="ellipse;whiteSpace=wrap;html=1;" parent="TK7ho7hmgDEkicRMMMnY-5" vertex="1">
          <mxGeometry x="109" y="300" width="90" height="50" as="geometry" />
        </mxCell>
        <mxCell id="ZPkikcdjEnZt1FW7UEud-47" value="generate recipe" style="text;html=1;strokeColor=none;fillColor=none;align=center;verticalAlign=middle;whiteSpace=wrap;rounded=0;" parent="TK7ho7hmgDEkicRMMMnY-5" vertex="1">
          <mxGeometry x="124" y="310" width="60" height="30" as="geometry" />
        </mxCell>
        <mxCell id="Ki8oWJl16zvvb1Vfv7GC-10" value="" style="ellipse;whiteSpace=wrap;html=1;" parent="TK7ho7hmgDEkicRMMMnY-5" vertex="1">
          <mxGeometry x="145" y="720" width="90" height="50" as="geometry" />
        </mxCell>
        <mxCell id="Ki8oWJl16zvvb1Vfv7GC-11" value="add new recipe" style="text;html=1;strokeColor=none;fillColor=none;align=center;verticalAlign=middle;whiteSpace=wrap;rounded=0;" parent="TK7ho7hmgDEkicRMMMnY-5" vertex="1">
          <mxGeometry x="160" y="730" width="60" height="30" as="geometry" />
        </mxCell>
        <mxCell id="Ki8oWJl16zvvb1Vfv7GC-12" value="" style="ellipse;whiteSpace=wrap;html=1;" parent="TK7ho7hmgDEkicRMMMnY-5" vertex="1">
          <mxGeometry x="146" y="810" width="90" height="50" as="geometry" />
        </mxCell>
        <mxCell id="Ki8oWJl16zvvb1Vfv7GC-13" value="see recipe ratings" style="text;html=1;strokeColor=none;fillColor=none;align=center;verticalAlign=middle;whiteSpace=wrap;rounded=0;" parent="TK7ho7hmgDEkicRMMMnY-5" vertex="1">
          <mxGeometry x="161" y="820" width="60" height="30" as="geometry" />
        </mxCell>
        <mxCell id="Ki8oWJl16zvvb1Vfv7GC-16" value="" style="endArrow=classic;html=1;rounded=0;entryX=0;entryY=0.5;entryDx=0;entryDy=0;exitX=1;exitY=0.5;exitDx=0;exitDy=0;" parent="TK7ho7hmgDEkicRMMMnY-5" source="Ki8oWJl16zvvb1Vfv7GC-10" target="ZPkikcdjEnZt1FW7UEud-16" edge="1">
          <mxGeometry width="50" height="50" relative="1" as="geometry">
            <mxPoint x="236" y="780" as="sourcePoint" />
            <mxPoint x="286" y="730" as="targetPoint" />
          </mxGeometry>
        </mxCell>
        <mxCell id="Ki8oWJl16zvvb1Vfv7GC-17" value="includes" style="edgeLabel;html=1;align=center;verticalAlign=middle;resizable=0;points=[];" parent="Ki8oWJl16zvvb1Vfv7GC-16" vertex="1" connectable="0">
          <mxGeometry x="-0.2369" y="-2" relative="1" as="geometry">
            <mxPoint as="offset" />
          </mxGeometry>
        </mxCell>
        <mxCell id="ZPkikcdjEnZt1FW7UEud-16" value="" style="ellipse;whiteSpace=wrap;html=1;" parent="TK7ho7hmgDEkicRMMMnY-5" vertex="1">
          <mxGeometry x="455" y="780" width="90" height="50" as="geometry" />
        </mxCell>
        <mxCell id="ZPkikcdjEnZt1FW7UEud-17" value="Log in" style="text;html=1;strokeColor=none;fillColor=none;align=center;verticalAlign=middle;whiteSpace=wrap;rounded=0;" parent="TK7ho7hmgDEkicRMMMnY-5" vertex="1">
          <mxGeometry x="470" y="790" width="60" height="30" as="geometry" />
        </mxCell>
        <mxCell id="Ki8oWJl16zvvb1Vfv7GC-18" value="" style="endArrow=classic;html=1;rounded=0;exitX=1;exitY=0.5;exitDx=0;exitDy=0;entryX=0;entryY=0.5;entryDx=0;entryDy=0;" parent="TK7ho7hmgDEkicRMMMnY-5" source="Ki8oWJl16zvvb1Vfv7GC-12" target="ZPkikcdjEnZt1FW7UEud-16" edge="1">
          <mxGeometry width="50" height="50" relative="1" as="geometry">
            <mxPoint x="320" y="800" as="sourcePoint" />
            <mxPoint x="370" y="750" as="targetPoint" />
          </mxGeometry>
        </mxCell>
        <mxCell id="Ki8oWJl16zvvb1Vfv7GC-19" value="includes" style="edgeLabel;html=1;align=center;verticalAlign=middle;resizable=0;points=[];" parent="Ki8oWJl16zvvb1Vfv7GC-18" vertex="1" connectable="0">
          <mxGeometry x="-0.2923" y="-4" relative="1" as="geometry">
            <mxPoint as="offset" />
          </mxGeometry>
        </mxCell>
        <mxCell id="LeptfOjmaPCl6KjKugKV-1" value="" style="endArrow=classic;html=1;rounded=0;entryX=1;entryY=1;entryDx=0;entryDy=0;exitX=0;exitY=0;exitDx=0;exitDy=0;" parent="TK7ho7hmgDEkicRMMMnY-5" source="Ki8oWJl16zvvb1Vfv7GC-3" target="ZPkikcdjEnZt1FW7UEud-46" edge="1">
          <mxGeometry relative="1" as="geometry">
            <mxPoint x="337.11349570550453" y="435.99233047033624" as="sourcePoint" />
            <mxPoint x="232.99879629813165" y="401.3204102574267" as="targetPoint" />
            <Array as="points" />
          </mxGeometry>
        </mxCell>
        <mxCell id="LeptfOjmaPCl6KjKugKV-2" value="Extends" style="edgeLabel;resizable=0;html=1;align=center;verticalAlign=middle;" parent="LeptfOjmaPCl6KjKugKV-1" connectable="0" vertex="1">
          <mxGeometry relative="1" as="geometry" />
        </mxCell>
        <mxCell id="LeptfOjmaPCl6KjKugKV-3" value="" style="ellipse;whiteSpace=wrap;html=1;" parent="TK7ho7hmgDEkicRMMMnY-5" vertex="1">
          <mxGeometry x="470" y="340" width="90" height="50" as="geometry" />
        </mxCell>
        <mxCell id="LeptfOjmaPCl6KjKugKV-4" value="Login" style="text;html=1;strokeColor=none;fillColor=none;align=center;verticalAlign=middle;whiteSpace=wrap;rounded=0;" parent="TK7ho7hmgDEkicRMMMnY-5" vertex="1">
          <mxGeometry x="485" y="350" width="60" height="30" as="geometry" />
        </mxCell>
        <mxCell id="LeptfOjmaPCl6KjKugKV-6" value="" style="endArrow=classic;html=1;rounded=0;exitX=1;exitY=1;exitDx=0;exitDy=0;entryX=0;entryY=0;entryDx=0;entryDy=0;" parent="TK7ho7hmgDEkicRMMMnY-5" source="iisatfZGkJTnnGYzdXa2-1" target="LeptfOjmaPCl6KjKugKV-3" edge="1">
          <mxGeometry width="50" height="50" relative="1" as="geometry">
            <mxPoint x="110" y="360" as="sourcePoint" />
            <mxPoint x="160" y="310" as="targetPoint" />
          </mxGeometry>
        </mxCell>
        <mxCell id="LeptfOjmaPCl6KjKugKV-7" value="includes" style="edgeLabel;html=1;align=center;verticalAlign=middle;resizable=0;points=[];" parent="LeptfOjmaPCl6KjKugKV-6" vertex="1" connectable="0">
          <mxGeometry x="0.1562" y="1" relative="1" as="geometry">
            <mxPoint as="offset" />
          </mxGeometry>
        </mxCell>
        <mxCell id="LeptfOjmaPCl6KjKugKV-11" value="" style="endArrow=classic;html=1;rounded=0;exitX=1;exitY=0.5;exitDx=0;exitDy=0;entryX=0;entryY=1;entryDx=0;entryDy=0;" parent="TK7ho7hmgDEkicRMMMnY-5" source="ZPkikcdjEnZt1FW7UEud-46" target="LeptfOjmaPCl6KjKugKV-3" edge="1">
          <mxGeometry width="50" height="50" relative="1" as="geometry">
            <mxPoint x="273" y="380" as="sourcePoint" />
            <mxPoint x="323" y="330" as="targetPoint" />
          </mxGeometry>
        </mxCell>
        <mxCell id="LeptfOjmaPCl6KjKugKV-19" value="includes" style="edgeLabel;html=1;align=center;verticalAlign=middle;resizable=0;points=[];" parent="LeptfOjmaPCl6KjKugKV-11" vertex="1" connectable="0">
          <mxGeometry x="-0.145" y="-1" relative="1" as="geometry">
            <mxPoint as="offset" />
          </mxGeometry>
        </mxCell>
        <mxCell id="LeptfOjmaPCl6KjKugKV-15" value="" style="endArrow=classic;html=1;rounded=0;exitX=1;exitY=0;exitDx=0;exitDy=0;entryX=0.5;entryY=1;entryDx=0;entryDy=0;" parent="TK7ho7hmgDEkicRMMMnY-5" source="ZPkikcdjEnZt1FW7UEud-15" target="LeptfOjmaPCl6KjKugKV-3" edge="1">
          <mxGeometry width="50" height="50" relative="1" as="geometry">
            <mxPoint x="313" y="620" as="sourcePoint" />
            <mxPoint x="363" y="570" as="targetPoint" />
          </mxGeometry>
        </mxCell>
        <mxCell id="LeptfOjmaPCl6KjKugKV-16" value="includes" style="edgeLabel;html=1;align=center;verticalAlign=middle;resizable=0;points=[];" parent="LeptfOjmaPCl6KjKugKV-15" vertex="1" connectable="0">
          <mxGeometry x="0.1321" relative="1" as="geometry">
            <mxPoint as="offset" />
          </mxGeometry>
        </mxCell>
        <mxCell id="JXsmEq5UTDkbb68dlSus-2" value="&lt;font style=&quot;font-size: 11px;&quot;&gt;view chef recipes followed&lt;/font&gt;" style="ellipse;whiteSpace=wrap;html=1;" parent="TK7ho7hmgDEkicRMMMnY-5" vertex="1">
          <mxGeometry x="365" y="540" width="90" height="50" as="geometry" />
        </mxCell>
        <mxCell id="JXsmEq5UTDkbb68dlSus-6" value="" style="endArrow=classic;html=1;rounded=0;exitX=0;exitY=0;exitDx=0;exitDy=0;entryX=1;entryY=1;entryDx=0;entryDy=0;" parent="TK7ho7hmgDEkicRMMMnY-5" source="JXsmEq5UTDkbb68dlSus-2" target="ZPkikcdjEnZt1FW7UEud-15" edge="1">
          <mxGeometry width="50" height="50" relative="1" as="geometry">
            <mxPoint x="270" y="650" as="sourcePoint" />
            <mxPoint x="320" y="600" as="targetPoint" />
          </mxGeometry>
        </mxCell>
        <mxCell id="JXsmEq5UTDkbb68dlSus-7" value="Extends" style="edgeLabel;html=1;align=center;verticalAlign=middle;resizable=0;points=[];" parent="JXsmEq5UTDkbb68dlSus-6" vertex="1" connectable="0">
          <mxGeometry x="0.2797" relative="1" as="geometry">
            <mxPoint as="offset" />
          </mxGeometry>
        </mxCell>
        <mxCell id="ljBNDGGqBFF0m7A5Z07k-2" value="search recipe" style="ellipse;whiteSpace=wrap;html=1;" parent="TK7ho7hmgDEkicRMMMnY-5" vertex="1">
          <mxGeometry x="164.75" y="565" width="82.5" height="55" as="geometry" />
        </mxCell>
        <mxCell id="ljBNDGGqBFF0m7A5Z07k-5" style="edgeStyle=orthogonalEdgeStyle;rounded=0;orthogonalLoop=1;jettySize=auto;html=1;exitX=0.5;exitY=0;exitDx=0;exitDy=0;entryX=0.578;entryY=1.025;entryDx=0;entryDy=0;entryPerimeter=0;" parent="TK7ho7hmgDEkicRMMMnY-5" source="ljBNDGGqBFF0m7A5Z07k-3" target="LeptfOjmaPCl6KjKugKV-3" edge="1">
          <mxGeometry relative="1" as="geometry" />
        </mxCell>
        <mxCell id="ljBNDGGqBFF0m7A5Z07k-7" value="Extends" style="edgeLabel;html=1;align=center;verticalAlign=middle;resizable=0;points=[];" parent="ljBNDGGqBFF0m7A5Z07k-5" vertex="1" connectable="0">
          <mxGeometry x="0.1162" y="1" relative="1" as="geometry">
            <mxPoint as="offset" />
          </mxGeometry>
        </mxCell>
        <mxCell id="ljBNDGGqBFF0m7A5Z07k-6" style="edgeStyle=orthogonalEdgeStyle;rounded=0;orthogonalLoop=1;jettySize=auto;html=1;exitX=0.5;exitY=1;exitDx=0;exitDy=0;entryX=0.752;entryY=0.046;entryDx=0;entryDy=0;entryPerimeter=0;" parent="TK7ho7hmgDEkicRMMMnY-5" source="ljBNDGGqBFF0m7A5Z07k-3" target="ZPkikcdjEnZt1FW7UEud-16" edge="1">
          <mxGeometry relative="1" as="geometry" />
        </mxCell>
        <mxCell id="ljBNDGGqBFF0m7A5Z07k-8" value="Extends" style="edgeLabel;html=1;align=center;verticalAlign=middle;resizable=0;points=[];" parent="ljBNDGGqBFF0m7A5Z07k-6" vertex="1" connectable="0">
          <mxGeometry x="-0.2978" y="1" relative="1" as="geometry">
            <mxPoint y="-1" as="offset" />
          </mxGeometry>
        </mxCell>
        <mxCell id="ljBNDGGqBFF0m7A5Z07k-9" style="edgeStyle=orthogonalEdgeStyle;rounded=0;orthogonalLoop=1;jettySize=auto;html=1;exitX=1;exitY=0.5;exitDx=0;exitDy=0;" parent="TK7ho7hmgDEkicRMMMnY-5" source="ljBNDGGqBFF0m7A5Z07k-3" edge="1">
          <mxGeometry relative="1" as="geometry">
            <mxPoint x="650" y="635" as="targetPoint" />
          </mxGeometry>
        </mxCell>
        <mxCell id="ljBNDGGqBFF0m7A5Z07k-3" value="Login with Google" style="ellipse;whiteSpace=wrap;html=1;" parent="TK7ho7hmgDEkicRMMMnY-5" vertex="1">
          <mxGeometry x="485" y="610" width="75" height="50" as="geometry" />
        </mxCell>
        <mxCell id="QfNBsSt_ebs1pLby6_3l-1" value="" style="endArrow=none;html=1;rounded=0;startArrow=none;" parent="1" source="QfNBsSt_ebs1pLby6_3l-2" edge="1">
          <mxGeometry width="50" height="50" relative="1" as="geometry">
            <mxPoint x="54.5" y="690" as="sourcePoint" />
            <mxPoint x="55" y="480" as="targetPoint" />
          </mxGeometry>
        </mxCell>
        <mxCell id="QfNBsSt_ebs1pLby6_3l-2" value="" style="triangle;whiteSpace=wrap;html=1;rotation=-90;" parent="1" vertex="1">
          <mxGeometry x="43.13" y="466.88" width="23.75" height="20" as="geometry" />
        </mxCell>
        <mxCell id="QfNBsSt_ebs1pLby6_3l-3" value="" style="endArrow=none;html=1;rounded=0;" parent="1" edge="1">
          <mxGeometry width="50" height="50" relative="1" as="geometry">
            <mxPoint x="55" y="760" as="sourcePoint" />
            <mxPoint x="55" y="490" as="targetPoint" />
          </mxGeometry>
        </mxCell>
        <mxCell id="m8yhM-mC_Noncx3uko2s-8" value="" style="endArrow=classic;html=1;rounded=0;entryX=0;entryY=0.5;entryDx=0;entryDy=0;" parent="1" target="ZPkikcdjEnZt1FW7UEud-15" edge="1">
          <mxGeometry width="50" height="50" relative="1" as="geometry">
            <mxPoint x="80" y="400" as="sourcePoint" />
            <mxPoint x="208" y="185" as="targetPoint" />
            <Array as="points" />
          </mxGeometry>
        </mxCell>
        <mxCell id="Ki8oWJl16zvvb1Vfv7GC-9" value="" style="endArrow=classic;html=1;rounded=0;entryX=0;entryY=0.5;entryDx=0;entryDy=0;" parent="1" target="ZPkikcdjEnZt1FW7UEud-46" edge="1">
          <mxGeometry width="50" height="50" relative="1" as="geometry">
            <mxPoint x="80" y="400" as="sourcePoint" />
            <mxPoint x="260" y="670" as="targetPoint" />
          </mxGeometry>
        </mxCell>
        <mxCell id="Ki8oWJl16zvvb1Vfv7GC-14" value="" style="endArrow=classic;html=1;rounded=0;exitX=1;exitY=0.3333333333333333;exitDx=0;exitDy=0;exitPerimeter=0;entryX=0;entryY=0.5;entryDx=0;entryDy=0;" parent="1" source="ZPkikcdjEnZt1FW7UEud-1" target="Ki8oWJl16zvvb1Vfv7GC-10" edge="1">
          <mxGeometry width="50" height="50" relative="1" as="geometry">
            <mxPoint x="100" y="810" as="sourcePoint" />
            <mxPoint x="150" y="760" as="targetPoint" />
          </mxGeometry>
        </mxCell>
        <mxCell id="Ki8oWJl16zvvb1Vfv7GC-15" value="" style="endArrow=classic;html=1;rounded=0;exitX=1;exitY=0.3333333333333333;exitDx=0;exitDy=0;exitPerimeter=0;entryX=0;entryY=0.5;entryDx=0;entryDy=0;" parent="1" source="ZPkikcdjEnZt1FW7UEud-1" target="Ki8oWJl16zvvb1Vfv7GC-12" edge="1">
          <mxGeometry width="50" height="50" relative="1" as="geometry">
            <mxPoint x="83.13" y="799.9999999999998" as="sourcePoint" />
            <mxPoint x="246.0000000000001" y="794.9999999999998" as="targetPoint" />
          </mxGeometry>
        </mxCell>
        <mxCell id="ljBNDGGqBFF0m7A5Z07k-1" value="" style="endArrow=classic;html=1;rounded=0;" parent="1" target="ljBNDGGqBFF0m7A5Z07k-2" edge="1">
          <mxGeometry width="50" height="50" relative="1" as="geometry">
            <mxPoint x="80" y="400" as="sourcePoint" />
            <mxPoint x="270" y="390" as="targetPoint" />
          </mxGeometry>
        </mxCell>
      </root>
    </mxGraphModel>
  </diagram>
</mxfile>
